HIERARCHY
ROOT Hips
{
	OFFSET 52.277302 -18.285418 100.719002
	CHANNELS 6 Xposition Yposition Zposition Xrotation Yrotation Zrotation
	JOINT spine
	{
		OFFSET 0.000000 -0.507025 8.817047
		CHANNELS 3 Xrotation Yrotation Zrotation
		JOINT spine1
		{
			OFFSET 0.000000 -0.000002 10.776604
			CHANNELS 3 Xrotation Yrotation Zrotation
			JOINT spine2
			{
				OFFSET 0.000000 -0.000002 10.325897
				CHANNELS 3 Xrotation Yrotation Zrotation
				JOINT Neck
				{
					OFFSET 0.000000 -1.263954 26.511002
					CHANNELS 3 Xrotation Yrotation Zrotation
					JOINT Head
					{
						OFFSET 0.000000 -0.000002 8.009659
						CHANNELS 3 Xrotation Yrotation Zrotation
						End Site
						{
							OFFSET 0.000000 6.393856 19.387894
						}
					}
				}
				JOINT RightShoulder
				{
					OFFSET -4.347950 0.605419 11.151199
					CHANNELS 3 Xrotation Yrotation Zrotation
					JOINT RightArm
					{
						OFFSET 0.000000 -0.000002 14.625793
						CHANNELS 3 Xrotation Yrotation Zrotation
						JOINT RightArmRoll
						{
							OFFSET 0.000000 -0.000002 7.383408
							CHANNELS 3 Xrotation Yrotation Zrotation
							JOINT RightForeArm
							{
								OFFSET 0.000000 -0.000004 21.505203
								CHANNELS 3 Xrotation Yrotation Zrotation
								JOINT RightForeArmRoll
								{
									OFFSET 0.000000 -0.000002 8.285324
									CHANNELS 3 Xrotation Yrotation Zrotation
									JOINT RightHand
									{
										OFFSET 0.000000 -0.000002 16.626801
										CHANNELS 3 Xrotation Yrotation Zrotation
										End Site
										{
											OFFSET 0.000000 0.000000 0.100006
										}
									}
								}
							}
						}
					}
				}
				JOINT LeftShoulder
				{
					OFFSET 4.347950 0.605419 11.151199
					CHANNELS 3 Xrotation Yrotation Zrotation
					JOINT LeftArm
					{
						OFFSET 0.000000 -0.000002 14.625793
						CHANNELS 3 Xrotation Yrotation Zrotation
						JOINT LeftArmRoll
						{
							OFFSET 0.000000 -0.000002 7.383408
							CHANNELS 3 Xrotation Yrotation Zrotation
							JOINT LeftForeArm
							{
								OFFSET 0.000000 -0.000004 21.505203
								CHANNELS 3 Xrotation Yrotation Zrotation
								JOINT LeftForeArmRoll
								{
									OFFSET 0.000000 -0.000002 8.285324
									CHANNELS 3 Xrotation Yrotation Zrotation
									JOINT LeftHand
									{
										OFFSET 0.000000 -0.000002 16.626801
										CHANNELS 3 Xrotation Yrotation Zrotation
										End Site
										{
											OFFSET 0.000000 0.000000 0.100006
										}
									}
								}
							}
						}
					}
				}
			}
		}
	}
	JOINT RightUpLeg
	{
		OFFSET -7.815102 1.202171 -1.433090
		CHANNELS 3 Xrotation Yrotation Zrotation
		JOINT RightUpLegRoll
		{
			OFFSET 0.000000 -0.000004 19.495903
			CHANNELS 3 Xrotation Yrotation Zrotation
			JOINT RightLeg
			{
				OFFSET 0.000000 0.000004 -24.142700
				CHANNELS 3 Xrotation Yrotation Zrotation
				JOINT RightLegRoll
				{
					OFFSET 0.000000 -0.000004 24.221703
					CHANNELS 3 Xrotation Yrotation Zrotation
					JOINT RightFoot
					{
						OFFSET 0.000000 -0.000004 20.160500
						CHANNELS 3 Xrotation Yrotation Zrotation
						JOINT RightToeBase
						{
							OFFSET 0.000000 -0.000002 16.853195
							CHANNELS 3 Xrotation Yrotation Zrotation
							End Site
							{
								OFFSET 0.007145 0.940779 8.161865
							}
						}
					}
				}
			}
		}
	}
	JOINT LeftUpLeg
	{
		OFFSET 7.815102 1.202171 -1.433090
		CHANNELS 3 Xrotation Yrotation Zrotation
		JOINT LeftUpLegRoll
		{
			OFFSET 0.000000 -0.000004 19.496002
			CHANNELS 3 Xrotation Yrotation Zrotation
			JOINT LeftLeg
			{
				OFFSET 0.000000 -0.000004 24.142601
				CHANNELS 3 Xrotation Yrotation Zrotation
				JOINT LeftLegRoll
				{
					OFFSET 0.000000 -0.000004 24.445602
					CHANNELS 3 Xrotation Yrotation Zrotation
					JOINT LeftFoot
					{
						OFFSET 0.000000 -0.000004 19.936600
						CHANNELS 3 Xrotation Yrotation Zrotation
						JOINT LeftToeBase
						{
							OFFSET 0.000000 -0.000002 16.853195
							CHANNELS 3 Xrotation Yrotation Zrotation
							End Site
							{
								OFFSET -0.032013 0.940779 8.161865
							}
						}
					}
				}
			}
		}
	}
}
MOTION
Frames: 4
Frame Time: 0.041667
52.195400 -17.999321 100.693001 -3.256193 -0.479067 5.895795 -2.081330 0.061168 -0.080915 -0.167358 0.121428 -0.156188 1.477714 0.119686 -0.157623 25.322819 -4.101675 1.751175 -5.201531 4.845450 1.065175 -8.020002 -67.945301 -10.117017 -53.527943 -113.294779 -40.606339 -0.000001 0.000000 -0.000000 0.125684 -16.047664 -0.452358 0.000001 0.000001 -3.036250 -5.000225 -7.998861 0.000148 -6.330872 59.877994 7.578701 -32.474732 115.564656 24.903896 -0.000003 0.000025 -0.000001 3.521015 11.160825 0.142978 -0.000000 -0.000010 3.000009 -5.000233 7.998713 -0.000169 3.270243 -177.508051 0.158624 -179.999991 0.000006 -1.137003 175.567827 -1.251250 -0.350968 -0.000002 -0.000003 0.034992 68.752957 6.897037 2.121389 25.456967 -7.355619 0.000001 2.513451 176.889974 1.789610 -0.000005 -0.000005 -1.159310 -6.787179 2.290740 0.404845 -0.000001 0.000001 -0.112180 69.934689 -6.887456 -2.063716 25.456947 7.355613 -0.000000 
52.196800 -18.003521 100.693993 -3.259323 -0.478569 5.896547 -2.081823 0.061168 -0.080938 -0.167496 0.121087 -0.156516 1.477573 0.119365 -0.157946 25.322206 -4.098259 1.749507 -5.189935 4.837491 1.063719 -8.014628 -67.951312 -10.111433 -53.543864 -113.292027 -40.655598 0.000000 0.000000 -0.000000 0.118706 -16.070870 -0.444903 0.000003 0.000001 -3.036049 -5.000221 -7.998861 0.000148 -6.333820 59.881061 7.582419 -32.482512 115.557607 24.916633 -0.000001 0.000024 0.000000 3.537233 11.165326 0.140740 -0.000002 -0.000010 3.000011 -5.000227 7.998713 -0.000168 3.273690 -177.509076 0.159045 -179.999991 0.000006 -1.137003 175.567240 -1.251248 -0.350981 -0.000002 -0.000003 0.034993 68.752957 6.897037 2.121390 25.456965 -7.355619 0.000001 2.517940 176.888007 1.788838 -0.000005 -0.000004 -1.159310 -6.786500 2.291101 0.404846 -0.000001 0.000001 -0.112180 69.934471 -6.887452 -2.063730 25.456952 7.355614 -0.000000 
52.194695 -18.006220 100.689995 -3.262582 -0.478027 5.897371 -2.082299 0.061167 -0.080952 -0.167571 0.120701 -0.156827 1.477504 0.119012 -0.158256 25.321489 -4.094907 1.747795 -5.178275 4.829493 1.062218 -8.009419 -67.957206 -10.106032 -53.561268 -113.291494 -40.702088 -0.000001 -0.000001 -0.000001 0.108228 -16.091074 -0.438630 0.000005 0.000001 -3.035910 -5.000222 -7.998858 0.000147 -6.336755 59.883929 7.586102 -32.490575 115.551761 24.929219 -0.000002 0.000025 -0.000001 3.551579 11.169550 0.138652 -0.000002 -0.000010 3.000010 -5.000230 7.998712 -0.000168 3.277325 -177.510073 0.159459 -179.999991 0.000006 -1.137003 175.566707 -1.251247 -0.350993 -0.000002 -0.000003 0.034992 68.752957 6.897037 2.121389 25.456960 -7.355619 0.000001 2.522554 176.885999 1.787860 -0.000005 -0.000005 -1.159311 -6.785912 2.291630 0.404846 -0.000001 0.000001 -0.112180 69.934150 -6.887443 -2.063748 25.456952 7.355613 0.000001 
52.197102 -18.002523 100.690994 -3.265921 -0.477454 5.898235 -2.082773 0.061168 -0.080960 -0.167604 0.120280 -0.157128 1.477464 0.118637 -0.158553 25.320876 -4.091599 1.746065 -5.166579 4.821464 1.060688 -8.004282 -67.962998 -10.100706 -53.583056 -113.291631 -40.750329 0.000000 0.000000 0.000000 0.095302 -16.109180 -0.433186 0.000002 0.000001 -3.035810 -5.000224 -7.998863 0.000148 -6.339721 59.886798 7.589819 -32.499440 115.546105 24.942396 -0.000003 0.000024 -0.000001 3.564615 11.173489 0.136675 -0.000001 -0.000011 3.000010 -5.000230 7.998712 -0.000168 3.281094 -177.511084 0.159866 -179.999991 0.000006 -1.137003 175.566147 -1.251246 -0.351006 -0.000002 -0.000003 0.034992 68.752957 6.897036 2.121390 25.456962 -7.355619 0.000001 2.527232 176.885015 1.786802 -0.000005 -0.000004 -1.159310 -6.785384 2.292288 0.404847 -0.000001 0.000001 -0.112180 69.933822 -6.887434 -2.063667 25.456948 7.355613 0.000001 
